<?xml version="1.0" encoding="UTF-8"?>
<svg id="Layer_2" data-name="Layer 2" xmlns="http://www.w3.org/2000/svg" viewBox="0 0 170.16 190.44">
  <defs>
    <style>
      .cls-1 {
        fill: #fdba74;
        stroke-width: 0px;
      }
    </style>
  </defs>
  <g id="Layer_1-2" data-name="Layer 1">
    <path class="cls-1"
      d="M159.93,168.5c-5.6-5.31-11.6-10.23-17.73-14.93-22.72-17.43-44.81-35.55-62.41-58.37-8.05-10.42-15.23-21.51-22.75-32.22-1.3,10.7-6.58,18.61-18.4,21.21,4.48,2.63,8.77,4.89,12.8,7.55,19.65,12.97,35.63,29.99,51.73,46.89,13.34,13.99,26.61,28.05,40.21,41.78,3.44,3.48,7.88,6.08,12.15,8.59,2.82,1.66,6.17,2.33,9.02-.41,2.97-2.85,4.36-6.42,2.41-10.15-1.87-3.58-4.13-7.19-7.03-9.94ZM137.24,16.95c5.76-.77,11.52-1.54,17.06-2.27C109.26,7.18,63.95.84,17.97,9.44c1.63,3.65,4.27,5.9,8.76,6.31,6.57.6,13.18.61,19.78.93,2.42.12,4.84.38,7.26.58-.03.25-.05.5-.08.75-7.31.79-14.61,1.57-21.92,2.36,4.55,2.79,8.54,5.83,14.21,5.12,19.23-2.4,38.54-3.21,57.88-1.43,5.62.52,11.21,1.27,16.82,1.92-.03.46-.05.93-.08,1.39-26.06-2.16-52.13-4.56-77.98-.03.41,1.62.82,3.23,1.25,4.92,14.98-3.41,30.12-4.31,45.38-3.08,16.91,1.36,33.8,2.93,50.71,4.2,5.03.38,10.12.06,15.27.06-4.98-1.24-9.83-2.46-14.68-3.67l.05-1.82,28.55-4.17c-10.78-1.61-21.69-1.47-31.91-5.29,0-.51,0-1.03,0-1.54ZM53,66.3c3.11-12.12-1.68-21.73-10.82-29.47-7-5.93-14.17-11.66-21.26-17.48-.78,5.98,3.15,10.63,6.45,15.67-1.6-.58-3.16-1.2-4.11-2.33-2.84-3.43-5.46-7.04-8.13-10.61-2.42-3.25-4.78-6.54-7.2-9.86,1.38,9.5,2.67,18.41,4.05,27.94-6.09-3.9-8.7-9.57-11.11-15.51-.36.45-.62.63-.64.83-.12.99-.23,1.98-.24,2.97-.09,12.23,2.62,23.76,8.97,34.28,4.27,7.08,9.91,12.85,17.63,16.2,11.6,5.03,23.27-.4,26.41-12.62ZM12.73,8.91c1.36-.02,3.41-1.49,3.87-2.76C17.48,3.72,14.3.46,10.1,0c-.61.66-2.28,1.68-2.69,3.08-.78,2.61,2.11,5.88,5.32,5.83ZM53.44,37.98c1.12.19,2.56-1.45,3.86-2.28,0-.47,0-.93,0-1.4-1.32-.77-2.71-2.23-3.95-2.11-1.31.12-2.48,1.74-3.72,2.71,1.26,1.09,2.41,2.84,3.81,3.08ZM170.16,17.66c-1.17-1.05-2.22-2.62-3.57-2.96-.88-.23-2.22,1.33-3.35,2.09.96,1.19,1.91,2.38,3.29,4.1,1.64-1.46,2.63-2.34,3.63-3.22Z" />
  </g>
</svg>