<?xml version="1.0" encoding="UTF-8"?>
<svg id="Layer_2" data-name="Layer 2" xmlns="http://www.w3.org/2000/svg" viewBox="0 0 436.98 328.11">
  <defs>
    <style>
      .cls-1 {
        fill: #000;
        stroke-width: 0px;
      }
    </style>
  </defs>
  <g id="Layer_1-2" data-name="Layer 1">
    <g>
      <path class="cls-1" d="M290.94,168.5c-5.6-5.31-11.6-10.23-17.73-14.93-22.72-17.43-44.81-35.55-62.41-58.37-8.05-10.42-15.23-21.51-22.75-32.22-1.3,10.7-6.58,18.61-18.4,21.21,4.48,2.63,8.77,4.89,12.8,7.55,19.65,12.97,35.63,29.99,51.73,46.89,13.34,13.99,26.61,28.05,40.21,41.78,3.44,3.48,7.88,6.08,12.15,8.59,2.82,1.66,6.17,2.33,9.02-.41,2.97-2.85,4.36-6.42,2.41-10.15-1.87-3.58-4.13-7.19-7.03-9.94ZM268.25,16.95c5.76-.77,11.52-1.54,17.06-2.27-45.04-7.49-90.35-13.83-136.33-5.24,1.63,3.65,4.27,5.9,8.76,6.31,6.57.6,13.18.61,19.78.93,2.42.12,4.84.38,7.26.58-.03.25-.05.5-.08.75-7.31.79-14.61,1.57-21.92,2.36,4.55,2.79,8.54,5.83,14.21,5.12,19.23-2.4,38.54-3.21,57.88-1.43,5.62.52,11.21,1.27,16.82,1.92-.03.46-.05.93-.08,1.39-26.06-2.16-52.13-4.56-77.98-.03.41,1.62.82,3.23,1.25,4.92,14.98-3.41,30.12-4.31,45.38-3.08,16.91,1.36,33.8,2.93,50.71,4.2,5.03.38,10.12.06,15.27.06-4.98-1.24-9.83-2.46-14.68-3.67l.05-1.82,28.55-4.17c-10.78-1.61-21.69-1.47-31.91-5.29,0-.51,0-1.03,0-1.54ZM184.01,66.3c3.11-12.12-1.68-21.73-10.82-29.47-7-5.93-14.17-11.66-21.26-17.48-.78,5.98,3.15,10.63,6.45,15.67-1.6-.58-3.16-1.2-4.11-2.33-2.84-3.43-5.46-7.04-8.13-10.61-2.42-3.25-4.78-6.54-7.2-9.86,1.38,9.5,2.67,18.41,4.05,27.94-6.09-3.9-8.7-9.57-11.11-15.51-.36.45-.62.63-.64.83-.12.99-.23,1.98-.24,2.97-.09,12.23,2.62,23.76,8.97,34.28,4.27,7.08,9.91,12.85,17.63,16.2,11.6,5.03,23.27-.4,26.41-12.62ZM143.74,8.91c1.36-.02,3.41-1.49,3.87-2.76C148.49,3.72,145.31.46,141.11,0c-.61.66-2.28,1.68-2.69,3.08-.78,2.61,2.11,5.88,5.32,5.83ZM184.45,37.98c1.12.19,2.56-1.45,3.86-2.28,0-.47,0-.93,0-1.4-1.32-.77-2.71-2.23-3.95-2.11-1.31.12-2.48,1.74-3.72,2.71,1.26,1.09,2.41,2.84,3.81,3.08ZM301.17,17.66c-1.17-1.05-2.22-2.62-3.57-2.96-.88-.23-2.22,1.33-3.35,2.09.96,1.19,1.91,2.38,3.29,4.1,1.64-1.46,2.63-2.34,3.63-3.22Z"/>
      <path class="cls-1" d="M425.58,252c3.68-7.02,7.46-13.99,11.39-21.34-2.02-.53-3.74-.99-5.5-1.45,2.5-5.28,1.1-7.81-4.65-8-6.03-.2-11.39,1.42-14.41,7.38-.77,1.52-1.72,2.95-2.54,4.34-1.79-.38-3.23-.69-4.77-1.01.51-1.89.98-3.66,1.44-5.37-8.09-5.37-17.12-2.22-19.52,6.74-1.41,5.26-2.57,10.59-3.78,15.6-2.54-5.1-4.86-10.32-7.68-15.26-3.98-6.98-12.15-9.03-18.61-3.96-4.06,3.19-7.08,7.87-10.04,12.23-2.02,2.99-3.14,6.59-4.67,9.91-1.09-7.58-3.75-14.23-7.1-20.81-3.81-7.49-11.67-11.3-18.54-7.41-3.64,2.06-6.5,5.51-9.3,7.97-1.41-.33-3.19-.74-5.21-1.2.94-2.54,1.87-5.06,3.2-8.68-5.78.93-10.83,1.48-15.73,2.63-3.24.76-5.59,2.86-6.39,6.55-1.22,5.64-2.84,11.19-4.53,17.7v-13.91c-1.32-.2-2.4-.37-3.51-.54,0-1.03-.06-1.89.01-2.74.36-4.37-.4-5.19-4.88-5.23-.62,0-1.27-.05-1.87.07-9.86,1.98-15.03,4.42-16.09,14.07-.47,4.29-1.61,8.5-2.45,12.75-.25-.03-.51-.07-.76-.1.8-6.7,1.6-13.39,2.42-20.22-1.61-.34-2.89-.61-4.15-.87.22-2.55.41-4.87.69-8.12-6.09.39-11.69.37-17.17,1.17-14.74,2.14-23.11,12.24-22.47,26.71,2.29-.81,4.54-1.61,6.71-2.38-1.66,4.98-3.33,9.53-4.66,14.17-.71,2.49-1.82,3.37-4.44,2.25.57-2.06,1.15-4.13,1.96-7.03h-16.29c3.82-2.84,6.78-5.97,10.41-7.52,6.26-2.68,6.86-4.84,5.77-12.25-.29-1.94-.85-3.98-1.83-5.66-2.25-3.82-4.83-7.45-7.48-11.46-14.57,5.47-22.82,17.39-30.54,29.88-.31-.14-.63-.27-.94-.41,2.11-6.72,4.23-13.44,6.43-20.44h-5.29c1.1-2.86,2.07-5.37,3.54-9.18-6.08,1.08-11.3,1.8-16.42,3.01-3.04.72-5.01,2.84-5.76,6.17-1.2,5.35-2.75,10.62-4.16,15.92-.14-.02-.28-.03-.42-.05v-11.84c-1.33-.3-2.46-.56-3.59-.82,0-1.01-.02-1.75,0-2.5.17-4.66-.58-5.86-5.17-5.15-4.32.67-8.69,2.14-12.56,4.16-1.94,1.02-3.43,3.9-4.05,6.23-1.62,6.09-2.66,12.34-3.92,18.53-.19-.03-.37-.05-.56-.08.89-7.46,1.78-14.92,2.69-22.53-1.67-.25-2.85-.42-4.17-.61.23-2.62.44-5.03.69-7.82-12.95-.63-25.03.06-34.57,8.61-1.5-.98-3.08-2-4.9-3.18.04-.26.1-.86.21-1.46.76-4.23.28-4.92-4.03-5.61-.86-.14-1.74-.23-2.61-.27-9.99-.38-15.72,3.29-19.45,12.47-1.22,3-2.39,6.02-3.54,9.05-1.82,4.83-3.6,9.68-5.4,14.52-.25-.05-.51-.1-.76-.15.46-7.76.93-15.52,1.39-23.37-1.44-.44-2.68-.82-3.85-1.17.38-7.23-.43-7.99-7.69-7.55-1,.06-2.01.05-2.98.26-7.19,1.52-12.24,4.68-13.93,12.47-5.08,23.4-10.11,46.77-12.19,70.69-.33,3.78.35,7.02,3.21,8.96,5.13,3.48,10.69,6.32,16.54,9.7.76-7.35,1.4-13.49,2.04-19.63.31-.09.63-.18.94-.27,1.75,9.29,10.17,10.92,16.54,14.83,2.1,1.29,4.64,1.59,5.09-1.69,3.21-.29,6.14-.55,9.12-.82.11,1.52.21,2.96.36,5.02,6.06-1.68,11.65-4.71,17.92-2.62.69,3.88,1.97,4.78,5.94,3.29,4.54-1.7,9.17-3.32,8.51-9.85-.23-2.23.88-4.62,1.52-6.89.18-.64.87-1.14,1.63-2.07q1.21,12.88,8.58,13.75c1.44,4.68,2.32,5.18,7.21,3.83,1.44-.4,2.79-1.07,4.21-1.55,2.03-.68,4.08-1.3,6.16-1.96,1.12,4.79,1.7,5.13,6,3.69,1.41-.47,2.79-1.08,4.13-1.74,2.67-1.31,4.07-3.16,3.89-6.48-.21-3.9.37-7.85.61-11.78,1.3,2.8,1.84,5.68,2.48,8.54,1.65,7.3,1.67,7.29,8.19,7.72,1.27,1.47,2.14,3.48,3.38,3.74,5.05,1.04,11.63-4.52,12.17-9.65.65-6.22,1.52-12.41,2.29-18.61.62.62.73,1.22.81,1.82,2.16,16.15,7.69,19.37,23.2,23.92,2.85.83,5.66,2.18,8.13,3.82,4.57,3.04,8.84,1.73,10-3.52,1.5-.2,3.05-.4,4.25-.55.69,1.53.93,3.35,1.91,3.98,2.97,1.91,11.93-3.1,12.48-6.61.62-4.03,1.51-8.01,2.28-12.01.41.02.83.03,1.24.05,1.55,5.34-2.84,14.73,8.61,13.01,1.31,4.91,2.16,5.46,6.84,4.26,1.56-.4,3.03-1.13,4.57-1.63,2.13-.69,4.29-1.29,5.78-1.74,1.2,1.87,1.7,3.69,2.67,3.99,4.54,1.4,11.7-4.22,11.83-8.9.1-3.86.38-7.71.57-11.56,1.39,2.97,1.96,5.9,2.59,8.81q1.55,7.07,8.11,7.36c1.2,1.45,2.04,3.47,3.27,3.75,4.83,1.08,11.56-4.22,12.18-9.22.72-5.79,1.39-11.58,2.08-17.37.92,1.34.96,2.83,1.45,4.14,1.54,4.14,2.29,9.14,5.14,12.09,3.46,3.58,8.51,6.02,13.31,7.71,2.44.86,6.62-.09,8.64-1.83,3.68-3.15,6.56-7.33,9.33-11.39,1.82-2.67,2.86-5.86,4.58-9.53.94,4.33,1.55,7.87,2.5,11.32,1.85,6.72,11.54,14.53,18.48,14.91,5.9.32,9.91-2.86,12.79-7.63,1.97-3.26,3.67-6.67,5.49-10.02.39,2.78.11,5.43.06,8.09-.09,4.66,1.43,6.05,6.08,5.79.72-.04,1.44-.07,1.09-.05,1.7,1.69,2.64,3.48,3.83,3.66,4.86.76,10.03-3.49,10.64-8.28.24-1.9.55-3.8.97-6.69.62,1.72.95,2.47,1.16,3.26,1.08,4.11,2.61,7.64,7.86,7.38.56-.03,1.32.89,1.75,1.52,2.19,3.24,5.06,2.46,7.55.9,2.46-1.54,5.62-2.85,4.47-7.09-2.81-10.32-5.56-20.66-7.9-31.09-.57-2.54-.08-5.77,1.05-8.14,4.12-8.66,8.67-17.11,13.13-25.61ZM75.72,252.83c.39-1.79,3.74-2.92,5.97-4.53-3.57,11.27-6.95,21.89-10.32,32.52-.15-.03-.31-.06-.46-.09,1.53-9.31,2.79-18.69,4.81-27.89ZM47.74,318.11c1.72-15.07,3.43-30.11,5.15-45.14-.35-.19-.7-.38-1.05-.56-.87,1.4-2.08,2.69-2.55,4.22-3.9,12.47-7.67,24.97-11.47,37.47-.29.94-.54,1.88-.79,2.77-5.58.05-9.55-2.44-10.73-8.01-1.36-6.41-1.89-13.03-2.46-19.58-.5-5.77-.54-11.58-.79-17.38-.62-.08-1.24-.16-1.86-.25-3.42,15.94-6.64,31.91-7.72,48.25-6.46-.08-10.6-4.66-10.16-10.77,1.75-24.33,7.01-48.05,12.48-71.72.5-2.17,2.26-4.88,4.16-5.72,4.2-1.87,8.86-2.7,14.14-4.19-1.05,17.95-2.66,34.71-.03,51.37.53.13,1.07.26,1.6.4.73-1.5,1.61-2.96,2.18-4.52,5.08-13.91,10.18-27.81,15.09-41.79,1.21-3.44,3.44-5.28,6.74-6.25,4.03-1.18,8.01-2.87,12.72-1.02-1.34,7.72-2.91,15.36-3.96,23.08-2.78,20.36-5.39,40.74-7.95,61.13-.53,4.25-6.45,8.5-12.72,8.2ZM108.27,250.6c-2.45,20.22-3.51,40.5-2.81,60.87.16,4.54-6.59,9.24-10.71,7.24-1.06-.51-1.85-2.58-1.91-3.96-.22-5.09-.09-10.19-.09-15.44-6.61-1.61-11.55,1.5-12.8,8.56-.22,1.23-.48,2.45-.61,3.69-.61,5.47-6.83,9.51-12.49,7.91.55-13.54,4.81-26.36,8.16-39.34,1.93-7.47,4.42-14.8,6.53-22.23.95-3.34,2.36-6.19,5.33-8.25,1.22-.85,2.05-2.27,3.41-3.85-4.71-2.01-8.27.5-12.02,1.22,1.54-14.37,17.92-24.24,32.75-19.69-.9,7.73-1.78,15.51-2.72,23.28ZM149.66,310.4c-.49,4.17-7.43,9.23-11.45,8.05-.86-.25-1.75-1.71-1.93-2.73-1.64-9.44-3.19-18.9-4.62-28.37-.73-4.85-1.14-9.75-1.69-14.63-.4-.09-.81-.17-1.21-.26-.52,1.04-1.38,2.04-1.51,3.12-1.54,12.22-2.93,24.46-4.48,36.68-.15,1.2-.83,2.76-1.76,3.34-2.57,1.58-5.4,2.73-8.58,4.26-.9-12.56-.62-24.09,1.42-35.55,2.57-14.47,5.57-28.87,7.65-43.4.97-6.79,4.77-9.66,10.55-11.27,1.89-.53,3.85-.84,6.44-1.39-.53,14.99.1,29.43,3.14,43.65.39.15.78.3,1.17.46.74-1.41,1.87-2.74,2.17-4.23,1.87-9.4,3.54-18.84,5.3-28.27.25-1.34.59-2.67.93-4,2.15-8.3,6.18-11.1,15.3-10.5-9.65,27.74-13.43,56.35-16.82,85.04ZM193.78,316.19c-.16,2.24.85,5.36-3.35,5.26-4.55-.11-6.86-1.97-6.97-5.92-.02-.73-.07-1.46-.09-2.04-2.82.77-5.54,2.14-8.22,2.09-5.24-.09-8.73-3.14-10.51-8.11-2.81-7.83-2.76-15.95-2.15-24.03,1.47-19.66,9.15-36.6,23.33-50.39,2.82-2.74,6.38-4.72,9.63-6.99,1.72-1.21,3.12-.78,3.75,1.23.86,2.71,1.79,5.43,2.28,8.22.68,3.82-.67,6.31-4.55,8.24-12.49,6.21-18.91,17.27-22.46,30.24-1.99,7.27-3.03,14.67-.92,22.13.65,2.29,1.32,4.72,4.57,4.39,3.3-.33,6.39-2.99,6.76-5.73.44-3.33.75-6.71,1.57-9.96.39-1.52,1.76-2.84,2.85-4.11,1.23-1.43,2.65-2.71,3.98-4.05-.28-.54-.56-1.08-.84-1.62-3.65.89-7.31,1.77-10.95,2.65-2.63-11.67,12.92-18.52,22.52-16.62-.34,1.27-.62,2.53-1.01,3.75-5.3,16.72-8.01,33.91-9.22,51.37ZM184.29,280.17c-2.44,5.5-.73,11.87-3.8,16.88-.58-.1-1.17-.21-1.75-.31.64-4.82,1.11-9.67,2.06-14.42.18-.91,2.27-1.44,3.49-2.14ZM241.47,254.59c-2.01,19.12-3.41,38.27-2.22,57.51.14,2.33-.37,4.13-2.56,4.75-2.89.82-5.91,1.28-8.9,1.57-.31.03-1.17-2.05-1.19-3.17-.13-5.33-.06-10.66-.06-16.84-3.34.89-6.78,1.67-10.1,2.79-.8.27-1.5,1.61-1.76,2.58-.67,2.52-1.19,5.09-1.55,7.67-.77,5.37-6.4,9.27-12.83,8.08,1.11-6.67,1.75-13.49,3.44-20.03,3.85-14.82,8.1-29.54,12.51-44.2.68-2.25,3.18-3.92,4.7-5.96.83-1.11,1.36-2.43,2.03-3.66-1.39-.22-2.84-.78-4.16-.57-2.28.36-4.49,1.2-7.12,1.94,3.23-14.34,6.94-17.16,23.22-19.97,3.1-.54,6.38-.08,9.79-.08-1.1,9.3-2.27,18.43-3.23,27.58ZM285.64,291.48c-.89,5.91-1.47,11.88-2.19,17.82-.61,5.03-5.91,9.66-10.9,9.14-.97-.1-2.38-1.71-2.56-2.8-1.8-10.43-3.42-20.89-5-31.36-.58-3.86-.92-7.76-1.37-11.64-.44-.07-.88-.14-1.32-.21-.51,1.21-1.34,2.37-1.49,3.62-1.46,11.99-2.77,23.99-4.24,35.97-.15,1.21-.77,2.8-1.7,3.4-2.55,1.62-5.37,2.81-9.1,4.67,0-8.32-.85-15.6.16-22.61,2.85-19.6,6.57-39.07,9.7-58.63.64-4,2.62-6.37,6.13-7.66,3.19-1.18,6.5-2.06,10.49-3.3-1.01,15.4.28,29.69,2.93,43.85.38.19.75.37,1.13.56.74-1.23,1.89-2.37,2.15-3.69,1.85-9.29,3.51-18.61,5.26-27.91.32-1.71.79-3.4,1.25-5.08,2.23-8.18,5.98-10.77,15.33-10.28-8.04,21.55-11.29,43.86-14.64,66.13ZM335.2,261.08c-1.18,14.16-4.86,27.7-11.09,40.46-1.83,3.75-4.04,7.59-6.97,10.49-8.11,8.02-17.76,4.22-19.4-4.9-1.03-5.73-1.83-11.51-2.41-15.22,1.23-22.16,5.11-41.39,15.53-58.86.7-1.17,1.45-2.34,2.34-3.37,2.98-3.45,6.77-5.2,11.3-4.26,4.6.95,7.24,4.2,8.41,8.61,2.36,8.87,3.06,17.92,2.3,27.05ZM362.18,311.15c-1.01,1.69-2.18,3.38-3.61,4.71-6.77,6.31-16.19,3.81-18.37-5.16-1.61-6.62-2.27-13.46-3.36-20.2.83-17.56,5.6-33.81,13.71-49.11,1.66-3.12,4.06-6.07,6.74-8.39,6.02-5.22,13.28-3.34,16.54,3.92,3.57,7.97,4.29,16.43,3.37,24.92-1.88,17.35-5.94,34.11-15.01,49.3ZM404.5,278.58c2.47,10.66,5.22,21.25,8.02,31.83.8,3.04-1.22,6.23-5.23,7.57-3.68,1.23-5.36.51-6.31-3.4-1.77-7.26-3.26-14.59-4.87-21.89-.23-1.04-.53-2.07-.85-3.3-5.69,6.88-5.42,15.1-6.53,22.91-.5,3.51-6.8,8.34-10.11,7.1-.96-.36-1.77-2.85-1.6-4.24,1.19-9.89,2.62-19.74,4.05-29.6,1.71-11.82,3.36-23.66,5.3-35.45.91-5.52,2.29-10.98,3.68-16.4,1.57-6.15,6.6-8.52,12.97-6.06-1.72,6.53-3.62,13.07-5.14,19.7-1.49,6.51-2.59,13.11-3.86,19.67.41.2.83.4,1.24.6.95-1.41,2.06-2.74,2.83-4.24,5.62-10.98,11.09-22.04,16.8-32.97,3.09-5.91,8.49-7.69,14.86-5.29-5.08,9.69-10.18,19.37-15.24,29.07-3.11,5.97-6.31,11.89-9.14,17.99-.88,1.89-1.33,4.42-.87,6.41ZM84.38,286.43c2.76-.63,5.01-.91,7.05-1.72,1.07-.42,2.38-1.7,2.53-2.74.97-6.76,1.69-13.55,2.4-20.34.39-3.72.62-7.45.92-11.17-.42-.08-.83-.16-1.25-.25-5.14,11.43-8.94,23.31-11.65,36.22ZM218.18,286.37c3.48-.77,6.24-1.38,9.3-2.06,1.22-11.32,2.44-22.58,3.65-33.85-.46-.09-.92-.19-1.38-.28-5.21,11.45-9.12,23.33-11.58,36.19ZM320.91,244.53c-2.67-1-3.78,2.02-4.86,4.12-6.17,11.96-9.19,24.68-9.35,38.13.2,3.23.27,6.48.67,9.69.13,1.07,1.04,2.81,1.72,2.87,1.12.1,2.77-.61,3.43-1.52,1.81-2.51,3.52-5.17,4.74-8.01,5.46-12.64,8.76-25.73,6.8-39.61-.29-2.08-1.58-5.08-3.15-5.67ZM314.01,288.86c.03-10.59,2.53-20.61,7.3-30.07.05,10.6-2.58,20.56-7.3,30.07ZM363.73,247.2c-1.86,1.64-4.33,2.94-5.48,4.97-7.3,12.88-10.57,26.82-9.84,41.62.1,2.09.58,4.22,1.27,6.2,1.04,3,3.17,3.38,5.35,1.08.75-.8,1.3-1.83,1.81-2.82,6.25-12.2,9.42-25.15,9.28-38.87,0-1.75.29-3.56-.07-5.22-.52-2.37-1.51-4.64-2.3-6.96ZM355.43,293.63c-.02-10.72,2.65-20.79,7.35-30.44,0,10.72-2.56,20.86-7.35,30.44Z"/>
    </g>
  </g>
</svg>